<svg xmlns="http://www.w3.org/2000/svg" width="32" height="32" viewBox="0 0 32 32"><defs><linearGradient id="glass" x1="0" y1="0" x2="1" y2="1"><stop stop-color="#fff"/><stop offset=".42" stop-color="#babaff"/><stop offset="1" stop-color="#34365b"/></linearGradient><linearGradient id="rim" x1="0" y1="0" x2="1" y2="1"><stop stop-color="#fff"/><stop offset=".55" stop-color="#bab2ff"/><stop offset="1" stop-color="#43b5ff"/></linearGradient><filter id="glow" x="-60%" y="-60%" width="220%" height="220%"><feGaussianBlur stdDeviation="1.3"/></filter></defs><path d="M7 19 4 13c-1-3 2-4 3-1l3 5V7c0-3 4-3 4 0v8-10c0-3 4-3 4 0v10-8c0-3 4-3 4 0v10-5c0-3 4-3 4 0v9c0 3-2 7-5 8h-9c-2-2-4-6-5-10Z" fill="url(#glass)" stroke="url(#rim)" stroke-width="1.6" stroke-linejoin="round"/></svg>